<?xml version="1.0" encoding="UTF-8"?>
<!DOCTYPE svg PUBLIC "-//W3C//DTD SVG 1.1//EN" "http://www.w3.org/Graphics/SVG/1.1/DTD/svg11.dtd">
<!-- Creator: CorelDRAW X8 -->
<svg xmlns="http://www.w3.org/2000/svg" xml:space="preserve" width="297mm" height="420mm" version="1.1" style="shape-rendering:geometricPrecision; text-rendering:geometricPrecision; image-rendering:optimizeQuality; fill-rule:evenodd; clip-rule:evenodd"
viewBox="0 0 29700 42000"
 xmlns:xlink="http://www.w3.org/1999/xlink">
 <defs>
  <style type="text/css">
   <![CDATA[
    .str2 {stroke:#1C1B17;stroke-width:300}
    .str0 {stroke:#1C1B17;stroke-width:400}
    .str1 {stroke:#C7691D;stroke-width:7.62}
    .fil2 {fill:none}
    .fil1 {fill:#C7691D}
    .fil0 {fill:#9B541E}
    .fil3 {fill:#1C1B17}
   ]]>
  </style>
     <clipPath id="id0">
      <path d="M13910 20322c32,-58 62,-111 162,-106 78,4 143,49 190,85l-352 21zm-385 -1597l-74 111c-31,21 -71,45 -108,66 -97,55 -147,52 -289,53 22,43 -32,210 -3,326l-8 194 -287 -147 141 226c73,159 211,234 272,342l-223 -17c99,53 216,43 297,128 -41,35 -247,81 -322,115 -92,40 -204,125 -316,133l-123 152c167,-44 912,-340 958,-50 -464,79 -671,7 -1075,250 99,648 283,1383 407,2047 141,750 212,1394 271,2179 61,802 28,1599 7,2396 -17,594 -191,1851 -83,2361 558,253 1857,342 2561,298 302,-18 1302,-170 1473,-313 90,-215 -85,-1978 -106,-2344 -90,-1509 35,-3137 299,-4619 91,-514 381,-1657 386,-2107l-514 -83c-188,-29 -126,-47 -214,456 -57,321 -260,1483 -370,1640 -86,-184 -137,-2099 -54,-2176l0 -33 -1934 -18 -115 -264c305,-10 545,-141 631,-334l-681 182c230,-105 560,-324 528,-652 -136,90 -335,418 -611,446 137,-767 2024,-2787 2474,-3316 451,-527 938,-992 1403,-1489 463,-496 930,-1002 1387,-1516l-83 -41c-419,-36 -931,32 -1338,84 -358,45 -928,184 -1218,194 191,-260 769,-530 1205,-645 518,-137 1071,-195 1642,-203 438,-6 373,-96 569,-352 135,-178 264,-334 393,-529 239,-361 464,-734 677,-1162 -441,-63 -1382,-18 -1668,-250 860,-24 987,-63 1734,-298 294,-92 347,-291 417,-618 39,-182 169,-740 101,-871 -25,-19 -1614,242 -1953,183 717,-225 974,-210 1532,-630 253,-191 446,-264 325,-678 -237,-810 -690,-1456 -1235,-2017 -117,-120 -1012,-975 -1215,-947 195,318 273,632 265,1089 -53,507 -220,775 -368,1199 -157,446 195,773 282,1189l-513 -653c-144,179 -460,782 -593,1018 -132,236 309,1109 250,1220 -72,-170 -397,-718 -520,-754 -226,290 -516,772 -725,1102 -721,1138 -1375,2195 -2045,3395 -427,763 -823,1617 -1153,2491 -168,445 -322,886 -450,1364 -46,173 -292,1484 -300,1497zm1934 -4018l3438 -4805 446 -618c-100,369 -1316,2087 -1608,2534 -544,834 -1084,1673 -1627,2532 -550,870 -995,1701 -1428,2730 -218,518 -381,956 -549,1531 -67,229 -168,616 -201,842 -15,102 -128,893 -141,917l-67 647c-42,312 -27,642 -68,945 -16,118 -215,521 -278,728 -35,-196 79,-1870 143,-1957 -7,-72 26,-384 49,-413 167,-1102 362,-2091 688,-3069 131,-390 357,-962 556,-1321 79,-143 637,-1152 647,-1223z"/>
     </clipPath>
     <clipPath id="id1">
      <path d="M13910 20322c32,-58 62,-111 162,-106 78,4 143,49 190,85l-352 21zm-385 -1597l-74 111c-31,21 -71,45 -108,66 -97,55 -147,52 -289,53 22,43 -32,210 -3,326l-8 194 -287 -147 141 226c73,159 211,234 272,342l-223 -17c99,53 216,43 297,128 -41,35 -247,81 -322,115 -92,40 -204,125 -316,133l-123 152c167,-44 912,-340 958,-50 -464,79 -671,7 -1075,250 99,648 283,1383 407,2047 141,750 212,1394 271,2179 61,802 28,1599 7,2396 -17,594 -191,1851 -83,2361 558,253 1857,342 2561,298 302,-18 1302,-170 1473,-313 90,-215 -85,-1978 -106,-2344 -90,-1509 35,-3137 299,-4619 91,-514 381,-1657 386,-2107l-514 -83c-188,-29 -126,-47 -214,456 -57,321 -260,1483 -370,1640 -86,-184 -137,-2099 -54,-2176l0 -33 -1934 -18 -115 -264c305,-10 545,-141 631,-334l-681 182c230,-105 560,-324 528,-652 -136,90 -335,418 -611,446 137,-767 2024,-2787 2474,-3316 451,-527 938,-992 1403,-1489 463,-496 930,-1002 1387,-1516l-83 -41c-419,-36 -931,32 -1338,84 -358,45 -928,184 -1218,194 191,-260 769,-530 1205,-645 518,-137 1071,-195 1642,-203 438,-6 373,-96 569,-352 135,-178 264,-334 393,-529 239,-361 464,-734 677,-1162 -441,-63 -1382,-18 -1668,-250 860,-24 987,-63 1734,-298 294,-92 347,-291 417,-618 39,-182 169,-740 101,-871 -25,-19 -1614,242 -1953,183 717,-225 974,-210 1532,-630 253,-191 446,-264 325,-678 -237,-810 -690,-1456 -1235,-2017 -117,-120 -1012,-975 -1215,-947 195,318 273,632 265,1089 -53,507 -220,775 -368,1199 -157,446 195,773 282,1189l-513 -653c-144,179 -460,782 -593,1018 -132,236 309,1109 250,1220 -72,-170 -397,-718 -520,-754 -226,290 -516,772 -725,1102 -721,1138 -1375,2195 -2045,3395 -427,763 -823,1617 -1153,2491 -168,445 -322,886 -450,1364 -46,173 -292,1484 -300,1497zm1934 -4018l3438 -4805 446 -618c-100,369 -1316,2087 -1608,2534 -544,834 -1084,1673 -1627,2532 -550,870 -995,1701 -1428,2730 -218,518 -381,956 -549,1531 -67,229 -168,616 -201,842 -15,102 -128,893 -141,917l-67 647c-42,312 -27,642 -68,945 -16,118 -215,521 -278,728 -35,-196 79,-1870 143,-1957 -7,-72 26,-384 49,-413 167,-1102 362,-2091 688,-3069 131,-390 357,-962 556,-1321 79,-143 637,-1152 647,-1223z"/>
     </clipPath>
 </defs>
 <g id="Camada_x0020_1">
  <metadata id="CorelCorpID_0Corel-Layer"/>
  <path class="fil0 str0" d="M15130 10814c6239,0 11298,5058 11298,11298 0,6240 -5059,11299 -11298,11299 -6240,0 -11299,-5059 -11299,-11299 0,-6240 5059,-11298 11299,-11298zm0 1783c5254,0 9514,4260 9514,9515 0,5255 -4260,9515 -9514,9515 -5255,0 -9515,-4260 -9515,-9515 0,-5255 4260,-9515 9515,-9515z"/>
  <g id="_1999826202688">
   <g>
    <path class="fil1" d="M13910 20322c32,-58 62,-111 162,-106 78,4 143,49 190,85l-352 21zm-385 -1597l-74 111c-31,21 -71,45 -108,66 -97,55 -147,52 -289,53 22,43 -32,210 -3,326l-8 194 -287 -147 141 226c73,159 211,234 272,342l-223 -17c99,53 216,43 297,128 -41,35 -247,81 -322,115 -92,40 -204,125 -316,133l-123 152c167,-44 912,-340 958,-50 -464,79 -671,7 -1075,250 99,648 283,1383 407,2047 141,750 212,1394 271,2179 61,802 28,1599 7,2396 -17,594 -191,1851 -83,2361 558,253 1857,342 2561,298 302,-18 1302,-170 1473,-313 90,-215 -85,-1978 -106,-2344 -90,-1509 35,-3137 299,-4619 91,-514 381,-1657 386,-2107l-514 -83c-188,-29 -126,-47 -214,456 -57,321 -260,1483 -370,1640 -86,-184 -137,-2099 -54,-2176l0 -33 -1934 -18 -115 -264c305,-10 545,-141 631,-334l-681 182c230,-105 560,-324 528,-652 -136,90 -335,418 -611,446 137,-767 2024,-2787 2474,-3316 451,-527 938,-992 1403,-1489 463,-496 930,-1002 1387,-1516l-83 -41c-419,-36 -931,32 -1338,84 -358,45 -928,184 -1218,194 191,-260 769,-530 1205,-645 518,-137 1071,-195 1642,-203 438,-6 373,-96 569,-352 135,-178 264,-334 393,-529 239,-361 464,-734 677,-1162 -441,-63 -1382,-18 -1668,-250 860,-24 987,-63 1734,-298 294,-92 347,-291 417,-618 39,-182 169,-740 101,-871 -25,-19 -1614,242 -1953,183 717,-225 974,-210 1532,-630 253,-191 446,-264 325,-678 -237,-810 -690,-1456 -1235,-2017 -117,-120 -1012,-975 -1215,-947 195,318 273,632 265,1089 -53,507 -220,775 -368,1199 -157,446 195,773 282,1189l-513 -653c-144,179 -460,782 -593,1018 -132,236 309,1109 250,1220 -72,-170 -397,-718 -520,-754 -226,290 -516,772 -725,1102 -721,1138 -1375,2195 -2045,3395 -427,763 -823,1617 -1153,2491 -168,445 -322,886 -450,1364 -46,173 -292,1484 -300,1497zm1934 -4018l3438 -4805 446 -618c-100,369 -1316,2087 -1608,2534 -544,834 -1084,1673 -1627,2532 -550,870 -995,1701 -1428,2730 -218,518 -381,956 -549,1531 -67,229 -168,616 -201,842 -15,102 -128,893 -141,917l-67 647c-42,312 -27,642 -68,945 -16,118 -215,521 -278,728 -35,-196 79,-1870 143,-1957 -7,-72 26,-384 49,-413 167,-1102 362,-2091 688,-3069 131,-390 357,-962 556,-1321 79,-143 637,-1152 647,-1223z"/>
    <g style="clip-path:url(#id0)">
     <g>
     </g>
    </g>
    <path id="1" class="fil2 str1" d="M13910 20322c32,-58 62,-111 162,-106 78,4 143,49 190,85l-352 21zm-385 -1597l-74 111c-31,21 -71,45 -108,66 -97,55 -147,52 -289,53 22,43 -32,210 -3,326l-8 194 -287 -147 141 226c73,159 211,234 272,342l-223 -17c99,53 216,43 297,128 -41,35 -247,81 -322,115 -92,40 -204,125 -316,133l-123 152c167,-44 912,-340 958,-50 -464,79 -671,7 -1075,250 99,648 283,1383 407,2047 141,750 212,1394 271,2179 61,802 28,1599 7,2396 -17,594 -191,1851 -83,2361 558,253 1857,342 2561,298 302,-18 1302,-170 1473,-313 90,-215 -85,-1978 -106,-2344 -90,-1509 35,-3137 299,-4619 91,-514 381,-1657 386,-2107l-514 -83c-188,-29 -126,-47 -214,456 -57,321 -260,1483 -370,1640 -86,-184 -137,-2099 -54,-2176l0 -33 -1934 -18 -115 -264c305,-10 545,-141 631,-334l-681 182c230,-105 560,-324 528,-652 -136,90 -335,418 -611,446 137,-767 2024,-2787 2474,-3316 451,-527 938,-992 1403,-1489 463,-496 930,-1002 1387,-1516l-83 -41c-419,-36 -931,32 -1338,84 -358,45 -928,184 -1218,194 191,-260 769,-530 1205,-645 518,-137 1071,-195 1642,-203 438,-6 373,-96 569,-352 135,-178 264,-334 393,-529 239,-361 464,-734 677,-1162 -441,-63 -1382,-18 -1668,-250 860,-24 987,-63 1734,-298 294,-92 347,-291 417,-618 39,-182 169,-740 101,-871 -25,-19 -1614,242 -1953,183 717,-225 974,-210 1532,-630 253,-191 446,-264 325,-678 -237,-810 -690,-1456 -1235,-2017 -117,-120 -1012,-975 -1215,-947 195,318 273,632 265,1089 -53,507 -220,775 -368,1199 -157,446 195,773 282,1189l-513 -653c-144,179 -460,782 -593,1018 -132,236 309,1109 250,1220 -72,-170 -397,-718 -520,-754 -226,290 -516,772 -725,1102 -721,1138 -1375,2195 -2045,3395 -427,763 -823,1617 -1153,2491 -168,445 -322,886 -450,1364 -46,173 -292,1484 -300,1497zm1934 -4018l3438 -4805 446 -618c-100,369 -1316,2087 -1608,2534 -544,834 -1084,1673 -1627,2532 -550,870 -995,1701 -1428,2730 -218,518 -381,956 -549,1531 -67,229 -168,616 -201,842 -15,102 -128,893 -141,917l-67 647c-42,312 -27,642 -68,945 -16,118 -215,521 -278,728 -35,-196 79,-1870 143,-1957 -7,-72 26,-384 49,-413 167,-1102 362,-2091 688,-3069 131,-390 357,-962 556,-1321 79,-143 637,-1152 647,-1223z"/>
    <g style="clip-path:url(#id1)">
     <path id="2" class="fil2 str1" d="M12365 4568l9596 25331m0 -25331l-9596 25331"/>
    </g>
    <path class="fil3" d="M14011 15370l1690 -21c713,166 1038,-105 2944,610 393,3843 -920,6549 -955,10500 -10,1167 245,2656 146,3733 -190,370 -1763,602 -1918,661l58 1 -426 65c-198,-24 -389,-47 -594,-45 -193,2 -292,25 -405,49l-670 -93c-382,-132 -1725,-201 -1756,-874 -35,-740 108,-1772 145,-2536 210,-4308 -1234,-6811 -968,-11140 21,-350 53,-403 766,-600 755,-209 1494,-267 1943,-310 0,0 0,0 0,0zm-2344 862c1374,-757 5225,-690 6643,-11 78,5369 -934,5989 -981,10238 -14,1207 151,2375 155,3573 -1436,670 -3559,653 -4992,-4 66,-2980 381,-3783 -152,-7035 -531,-3243 -743,-3172 -673,-6761z"/>
   </g>
   <path class="fil2 str2" d="M12627 30304c812,325 1728,522 2430,499 913,-30 1721,-231 2365,-533"/>
  </g>
 </g>
</svg>
